<svg xmlns="http://www.w3.org/2000/svg" viewBox="0 0 256 256" xml:space="preserve"><path fill="#EFEFEF" d="m220.407 101.966-7.011 134.696H42.605l-7.012-134.696L128 43.004z"/><path fill="#FC5D3D" d="m252.568 105.377-4.771 7.482a5.545 5.545 0 0 1-7.657 1.693l-19.732-12.587L128 43.004l-92.407 58.962-19.732 12.587a5.545 5.545 0 0 1-7.657-1.693l-4.772-7.484a5.544 5.544 0 0 1 1.693-7.655C16.038 90.757 116.934 26.388 128 19.328c32.493 20.725 123.052 78.506 122.873 78.392a5.545 5.545 0 0 1 1.695 7.657z"/><path fill="#72C2E9" d="m220.407 101.966-7.011 134.696H42.605l-7.012-134.696L128 43.004z"/><path fill="#C5E5FE" d="M70.679 227.604h-19.6c-1.37 0-2.5-1.119-2.5-2.489 0-1.38 1.13-2.5 2.5-2.5h19.6a2.5 2.5 0 0 1 2.5 2.5 2.497 2.497 0 0 1-2.5 2.489zM185.319 227.615a2.51 2.51 0 0 1-2.5-2.511c0-1.369 1.12-2.5 2.5-2.5h15.271l4.39-111.31c.051-1.38 1.2-2.48 2.59-2.39a2.479 2.479 0 0 1 2.4 2.59l-4.47 113.71a2.494 2.494 0 0 1-2.5 2.399l-17.681.012z"/><path fill="#7D7B79" d="M185.322 236.662H70.678v-62.548c0-31.658 25.664-57.322 57.322-57.322s57.322 25.664 57.322 57.322v62.548z"/><path fill="#F8E5B2" d="M146.822 181.001v9.583c-5.179 4.547-11.714 7.25-18.821 7.25-7.107 0-13.643-2.702-18.821-7.25v-9.583c0-8.536 6.917-15.464 15.464-15.464h6.714c8.547 0 15.464 6.928 15.464 15.464z"/><path fill="#B34F33" d="M134.651 170.443a6.651 6.651 0 0 1-13.302 0c0-3.673 2.978-4.907 6.651-4.907s6.651 1.234 6.651 4.907zM105.357 145.06l-5.298 27.095a7.836 7.836 0 0 1-.976 2.559c-1.702 2.929-5.131 4.607-8.643 3.917-4.548-.893-7.452-5.369-6.417-9.881 1.186-5.221.996-14.828 21.334-23.69zM165.56 178.632c-3.512.691-6.929-.976-8.643-3.905-.012 0 0-.012 0-.012a7.822 7.822 0 0 1-.976-2.559l-5.298-27.095c19.885 8.664 20.019 17.902 21.333 23.69 1.047 4.535-1.887 8.989-6.416 9.881z"/><path fill="#EDC21D" d="M150.964 186.209c2.607-3.321 4.655-7.214 5.952-11.488v-.012a7.819 7.819 0 0 1-.976-2.56l-5.298-27.095c-5.571-4.512-13.655-6.31-22.643-6.31s-17.071 1.798-22.643 6.31l-5.298 27.095a7.85 7.85 0 0 1-.976 2.56c1.274 4.167 3.238 7.964 5.762 11.226a46.732 46.732 0 0 0-17.524 36.488v2.902c0 6.261 5.075 11.336 11.336 11.336h58.685c6.261 0 11.336-5.075 11.336-11.336v-2.485a46.696 46.696 0 0 0-17.713-36.631z"/><path fill="#EFEFEF" d="M148.604 87.495a7.711 7.711 0 0 0 3.562-6.499 7.723 7.723 0 0 0-7.723-7.723c-4.571 0-8.258 3.993-7.652 8.713h-17.584c.607-4.728-3.088-8.713-7.652-8.713a7.723 7.723 0 0 0-7.723 7.723 7.71 7.71 0 0 0 3.562 6.499 7.711 7.711 0 0 0-3.562 6.499 7.723 7.723 0 0 0 7.723 7.723c4.71 0 8.43-4.222 7.603-9.037h17.683c-.826 4.81 2.887 9.037 7.603 9.037a7.723 7.723 0 0 0 7.723-7.723 7.712 7.712 0 0 0-3.563-6.499z"/><path d="M37.55 74.064s-.01 0-.01.011a2.503 2.503 0 0 0-.76 3.45 2.486 2.486 0 0 0 3.45.76c1.16-.74 1.5-2.29.76-3.45-.71-1.12-2.311-1.481-3.44-.771z"/><path d="M252.22 95.615c-2.49-1.589-105.655-67.416-122.88-78.391-.8-.52-1.88-.52-2.68 0-9.359 5.968-70.95 45.256-80.71 51.48-1.16.74-1.5 2.29-.76 3.45.72 1.13 2.32 1.489 3.45.77C119.129 27.957 70.062 59.25 128 22.294c.131.083 121.399 77.434 121.52 77.53h.011a3.054 3.054 0 0 1 .93 4.21l-4.771 7.479a3.05 3.05 0 0 1-4.21.931L129.34 40.895c-.8-.51-1.88-.51-2.68 0l-112.14 71.55a3.05 3.05 0 0 1-4.21-.931l-4.77-7.479a3.043 3.043 0 0 1 .93-4.21c3.179-2.028 23.298-14.866 25.35-16.17 1.16-.74 1.5-2.29.76-3.45-.72-1.13-2.32-1.49-3.45-.771-2.559 1.642-6.058 3.872-25.35 16.181-3.747 2.379-4.843 7.321-2.46 11.1l4.78 7.49c2.425 3.818 7.434 4.809 11.1 2.45l16.122-10.286 6.788 130.426a2.494 2.494 0 0 0 2.49 2.37h170.8c1.33 0 2.42-1.04 2.49-2.37l3.37-64.79c.07-1.38-.99-2.56-2.36-2.63-1.42-.061-2.55.99-2.63 2.35v.021l-3.25 62.42h-23.2v-60.05c0-33.098-26.805-59.82-59.819-59.82-16.873 0-32.645 7.01-43.91 19.19a2.51 2.51 0 0 0 .13 3.54c.98.899 2.64.829 3.54-.141 10.35-11.18 25.02-17.59 40.24-17.59 30.324 0 54.819 24.524 54.819 54.82v60.05h-14.846a13.76 13.76 0 0 0 3.206-8.84v-2.48c0-6.13-1.12-12.13-3.33-17.819-.49-1.24-1.99-1.91-3.24-1.421-1.296.503-1.926 1.974-1.42 3.23 1.98 5.12 2.99 10.5 2.99 16.01v2.48c-.01 4.859-3.97 8.83-8.84 8.84h-18.598c1.158-5.223 5.83-9.15 11.408-9.15a2.496 2.496 0 0 0 2.431-3.09 28.258 28.258 0 0 0-3.23-7.82c-.68-1.14-2.28-1.55-3.43-.859-1.15.685-1.589 2.226-.851 3.43v.01c.711 1.17 1.311 2.4 1.79 3.66-6.921 1.375-12.138 6.989-13.192 13.82h-11.332c-1.048-6.832-6.266-12.445-13.196-13.82.49-1.26 1.09-2.5 1.79-3.67a2.5 2.5 0 0 0-.85-3.43 2.486 2.486 0 0 0-3.43.859 27.928 27.928 0 0 0-3.23 7.82 2.496 2.496 0 0 0 2.43 3.09c5.579 0 10.25 3.927 11.409 9.15h-18.6c-4.87-.01-8.83-3.98-8.84-8.84v-2.9c0-12.56 5.36-24.56 14.71-32.95 5.713 6.517 14.199 10.86 23.45 10.86h.04c8.854 0 17.181-3.946 23.24-10.62.54.48 1.06.96 1.56 1.46.961.93 2.61.91 3.54-.05.96-.99.94-2.57-.05-3.54a48.882 48.882 0 0 0-1.948-1.793 37.36 37.36 0 0 0 3.525-6.449c2.344 1.636 5.211 2.313 8.154 1.742 5.912-1.169 9.746-7.015 8.37-12.9-1.331-5.851-1.234-15.591-22.477-25.287-5.638-4.404-13.675-6.643-23.933-6.653-10.259.01-18.297 2.249-23.935 6.653-20.845 9.455-21.053 19.025-22.475 25.297-1.381 5.666 2.318 11.693 8.37 12.89 2.976.56 5.814-.116 8.161-1.753a37.204 37.204 0 0 0 3.353 6.184c-10.355 9.157-16.654 22.405-16.654 36.909v2.9a13.76 13.76 0 0 0 3.206 8.84H73.179v-60.05c0-7.36 1.43-14.511 4.26-21.24a2.492 2.492 0 0 0-1.33-3.271c-1.25-.529-2.76.091-3.28 1.33-3.09 7.351-4.65 15.141-4.65 23.181v60.05h-23.2l-6.815-130.886L128 45.965l89.835 57.32-2.525 48.48a2.499 2.499 0 1 0 4.99.261l2.377-45.651 16.113 10.281c3.733 2.384 8.709 1.33 11.109-2.45l4.78-7.48c2.416-3.857 1.233-8.766-2.459-11.111zm-107.901 93.773c-4.293 3.484-9.017 5.337-13.819 5.808v-15.958c4.369-1.244 7.129-5.518 6.59-9.839 4.268 2.127 7.222 6.526 7.229 11.605v8.384zm-12.17-18.943c0 2.279-1.859 4.14-4.149 4.149-2.28-.01-4.15-1.87-4.15-4.149.063-1.211.424-2.41 4.07-2.41h.16c3.62 0 4.007 1.191 4.069 2.41zm-6.649 8.793v15.958c-5.101-.5-9.668-2.438-13.82-5.815v-8.376c.007-5.079 2.962-9.478 7.23-11.605-.538 4.299 2.205 8.587 6.59 9.838zm44.04-9.933c.739 3.196-1.355 6.266-4.46 6.87-2.995.578-6.078-1.379-6.681-4.49l-4.319-22.1c14.457 8.054 13.869 12.717 15.46 19.72zm-21.173-22.852 5.123 26.182c.139.749.433 1.647.729 2.311a32.5 32.5 0 0 1-4.9 9.274v-3.215c0-9.91-8.06-17.97-17.96-17.97h-6.72c-9.9 0-17.96 8.06-17.96 17.97v3.202c-2.099-2.754-3.747-5.872-4.9-9.273a11.06 11.06 0 0 0 .74-2.31l5.11-26.17c4.62-3.41 11.63-5.209 20.269-5.209 6.947 0 14.896 1.105 20.469 5.208zm-57.458 29.722c-3.164-.618-5.185-3.769-4.45-6.86 1.567-6.919.937-11.656 15.461-19.724l-4.311 22.075c-.602 2.965-3.41 5.117-6.7 4.509z"/><path d="M112.72 161.885a2.5 2.5 0 0 0 2.5-2.5v-.99a2.5 2.5 0 0 0-5 0v.99a2.5 2.5 0 0 0 2.5 2.5zM143.28 161.885a2.5 2.5 0 0 0 2.5-2.5v-.99a2.5 2.5 0 0 0-5 0v.99a2.5 2.5 0 0 0 2.5 2.5zM159.55 194.985a2.487 2.487 0 0 0-.7 3.46c.767 1.167 2.33 1.452 3.46.71a2.498 2.498 0 0 0 .71-3.45v-.021c-.74-1.109-2.35-1.439-3.47-.699zM81.159 140.975c-1.13-.729-2.73-.38-3.45.73l-.01.01c-.737 1.149-.424 2.717.75 3.46a2.497 2.497 0 0 0 3.45-.74c.01-.01.01-.01.01-.02a2.495 2.495 0 0 0-.75-3.44zM217.42 159.385c-1.43-.06-2.561 1-2.63 2.37a2.503 2.503 0 0 0 2.5 2.63c1.33 0 2.43-1.04 2.49-2.37a2.488 2.488 0 0 0-2.36-2.63zM144.439 70.775c-5.04 0-9.38 3.739-10.109 8.71h-12.67c-.72-4.971-5.06-8.71-10.1-8.71-5.64 0-10.23 4.59-10.23 10.22 0 2.37.83 4.67 2.34 6.5a10.22 10.22 0 0 0-2.34 6.5c0 5.63 4.59 10.22 10.23 10.22 5.2 0 9.56-3.89 10.15-9.03h12.58c.59 5.141 4.939 9.03 10.149 9.03 5.641 0 10.23-4.59 10.23-10.22 0-2.37-.83-4.67-2.34-6.5a10.22 10.22 0 0 0 2.34-6.5c.001-5.63-4.589-10.22-10.23-10.22zm2.811 18.82c1.52.98 2.42 2.62 2.42 4.4-.01 2.87-2.351 5.22-5.23 5.22-3.041 0-5.676-2.661-5.14-6.11a2.5 2.5 0 0 0-2.46-2.93h-17.68a2.51 2.51 0 0 0-2.47 2.92c.599 3.095-1.841 6.12-5.13 6.12-2.88 0-5.22-2.35-5.23-5.22 0-1.78.91-3.42 2.42-4.4 1.524-.974 1.541-3.215 0-4.2-1.51-.979-2.42-2.619-2.42-4.399.01-2.87 2.35-5.22 5.23-5.22 3.109 0 5.579 2.727 5.17 5.89a2.502 2.502 0 0 0 2.48 2.82h17.58c1.496 0 2.673-1.288 2.479-2.841-.421-3.018 1.973-5.869 5.17-5.869 2.88 0 5.221 2.35 5.23 5.22 0 1.78-.9 3.42-2.42 4.399-1.536.982-1.53 3.222.001 4.2z"/></svg>